PathFileType  4	(X/Y/Z) C:\Users\wagnerel85475\Documents\Thesis\opencap-core\Data\3375ffbc-daeb-4a43-b4f7-ac9899cd4c71\MarkerData\PreAugmentation
DataRate	CameraRate	NumFrames	NumMarkers	Units	OrigDataRate	OrigDataStartFrame	OrigNumFrames
60.0	60.0	17	20	m	60.0	51	403
Frame#	Time	Neck			RShoulder			RElbow			RWrist			LShoulder			LElbow			LWrist			midHip			RHip			RKnee			RAnkle			LHip			LKnee			LAnkle			LBigToe			LSmallToe			LHeel			RBigToe			RSmallToe			RHeel			
		X1	Y1	Z1	X2	Y2	Z2	X3	Y3	Z3	X4	Y4	Z4	X5	Y5	Z5	X6	Y6	Z6	X7	Y7	Z7	X8	Y8	Z8	X9	Y9	Z9	X10	Y10	Z10	X11	Y11	Z11	X12	Y12	Z12	X13	Y13	Z13	X14	Y14	Z14	X15	Y15	Z15	X16	Y16	Z16	X17	Y17	Z17	X18	Y18	Z18	X19	Y19	Z19	X20	Y20	Z20	

51	0.8333333	0.2375300	1.8470200	-0.1501500	0.2305000	1.8150600	0.0390400	0.1766500	1.5195800	0.1085300	0.2728800	1.2334100	0.1620900	0.2616300	1.8859800	-0.3228100	0.3542000	2.1171700	-0.5211000	0.3219600	2.3927700	-0.4542600	0.2697600	1.2741300	-0.1463700	0.3035600	1.2704300	-0.0328900	0.2510200	0.7763300	-0.0671800	0.1948900	0.2767800	-0.0536700	0.3080000	1.2737500	-0.2615800	0.2312300	0.7914500	-0.2133400	0.1991100	0.2743500	-0.2272700	0.3739100	0.1930400	-0.2407500	0.3170500	0.2067600	-0.2896900	0.1183300	0.2230500	-0.2036500	0.3898300	0.2021300	-0.0488700	0.3395600	0.2115000	0.0017300	0.1239100	0.2186500	-0.0777300
52	0.8500000	0.2369900	1.8470400	-0.1503500	0.2309400	1.8147000	0.0392500	0.1771600	1.5194900	0.1084300	0.2727100	1.2331800	0.1620200	0.2509500	1.8839100	-0.3192900	0.3536800	2.1179400	-0.5208600	0.3313100	2.3864400	-0.4491800	0.2696100	1.2695200	-0.1466000	0.3149200	1.2701000	-0.0374600	0.2508200	0.7765200	-0.0673500	0.2047300	0.2786900	-0.0584800	0.3090500	1.2696600	-0.2609800	0.2312600	0.7922700	-0.2131900	0.1881800	0.2719300	-0.2313300	0.3744000	0.1930600	-0.2405600	0.3172500	0.2068200	-0.2895500	0.1180600	0.2188400	-0.2040700	0.3805700	0.1996500	-0.0444600	0.3392600	0.2109800	0.0017500	0.1257000	0.2222800	-0.0786800
53	0.8666667	0.2376400	1.8468900	-0.1500900	0.2308500	1.8104900	0.0393000	0.1767700	1.5193600	0.1085600	0.2731300	1.2286800	0.1621100	0.2507600	1.8836500	-0.3189100	0.3745100	2.1096800	-0.5205300	0.3325500	2.3824000	-0.4497200	0.2803400	1.2699100	-0.1507700	0.3135700	1.2702100	-0.0374900	0.2402600	0.7752700	-0.0708900	0.2058000	0.2790500	-0.0584600	0.3082000	1.2697100	-0.2615700	0.2312900	0.7914600	-0.2133300	0.1991600	0.2743500	-0.2272400	0.3639300	0.1909800	-0.2447400	0.3169800	0.2067500	-0.2897100	0.1185200	0.2191500	-0.2040400	0.3898200	0.2021300	-0.0488200	0.3395900	0.2114800	0.0017700	0.1240500	0.2185600	-0.0777800
54	0.8833333	0.2370600	1.8469300	-0.1503600	0.2313900	1.8101400	0.0395200	0.1779300	1.5149300	0.1085400	0.2727700	1.2286200	0.1620300	0.2507600	1.8800500	-0.3196900	0.3646400	2.1084400	-0.5245200	0.3518300	2.3776300	-0.4407700	0.2798800	1.2696100	-0.1510800	0.3149200	1.2699300	-0.0375600	0.2398300	0.7754200	-0.0710600	0.2047400	0.2785800	-0.0585800	0.3088900	1.2695000	-0.2611000	0.2314300	0.7914700	-0.2135400	0.1993200	0.2742400	-0.2272200	0.3743800	0.1933000	-0.2406300	0.3173300	0.2068500	-0.2896100	0.1180100	0.2187700	-0.2040900	0.3905300	0.2021200	-0.0489300	0.3395100	0.2109700	0.0017200	0.1241300	0.2182900	-0.0780700
55	0.9000000	0.2376800	1.8467700	-0.1501200	0.2309000	1.8103900	0.0393200	0.1774200	1.5149700	0.1086000	0.2611500	1.2285600	0.1588000	0.2618400	1.8737300	-0.3230200	0.3459900	2.1033700	-0.5341800	0.3632700	2.3703500	-0.4448700	0.2803200	1.2699600	-0.1508400	0.3136100	1.2701800	-0.0375300	0.2404300	0.7789000	-0.0711300	0.2059500	0.2790900	-0.0585000	0.3080700	1.2696300	-0.2616500	0.2313700	0.7905800	-0.2137300	0.1991200	0.2743100	-0.2272500	0.3738100	0.1933400	-0.2408200	0.3171300	0.2067800	-0.2897300	0.1185000	0.2191200	-0.2040700	0.3812900	0.2029700	-0.0449700	0.3395500	0.2148200	0.0013700	0.1242500	0.2186000	-0.0778500
56	0.9166667	0.2371400	1.8467300	-0.1503200	0.2429300	1.8052300	0.0430300	0.1778700	1.5148800	0.1085100	0.2708500	1.2286600	0.1537100	0.2511400	1.8748200	-0.3193300	0.3457300	2.0890400	-0.5429000	0.3623900	2.3578300	-0.4444500	0.2798600	1.2696100	-0.1511000	0.3149000	1.2699300	-0.0375800	0.2396500	0.7834300	-0.0711200	0.2046900	0.2786000	-0.0585800	0.2983500	1.2694600	-0.2652500	0.2313900	0.7913700	-0.2135800	0.1993200	0.2742600	-0.2272200	0.3729700	0.1964200	-0.2409200	0.3173600	0.2068500	-0.2895900	0.1179000	0.2187400	-0.2041300	0.3903800	0.2020600	-0.0488600	0.3393500	0.2109600	0.0017700	0.1241800	0.2183500	-0.0781200
57	0.9333333	0.2384700	1.8421500	-0.1496900	0.2429300	1.8090700	0.0429900	0.1772800	1.5149700	0.1085400	0.2709900	1.2256100	0.1537400	0.2733000	1.8631300	-0.3180600	0.3473900	2.0684100	-0.5429200	0.3760000	2.3400000	-0.4470600	0.2802000	1.2699400	-0.1508100	0.3137300	1.2658100	-0.0374500	0.2400500	0.7833800	-0.0709700	0.2059100	0.2791100	-0.0584800	0.3080500	1.2696700	-0.2616300	0.2313200	0.7825600	-0.2136700	0.1991500	0.2742600	-0.2272400	0.3641200	0.1908200	-0.2447700	0.3171100	0.2067500	-0.2897500	0.1185800	0.2191100	-0.2040400	0.3897900	0.2020500	-0.0488800	0.3397700	0.2070900	0.0013100	0.1258300	0.2224300	-0.0784900
58	0.9500000	0.2376900	1.8387100	-0.1500800	0.2435500	1.8087800	0.0432300	0.1779200	1.5148200	0.1084600	0.2806300	1.2254300	0.1486700	0.2744100	1.8589600	-0.3180900	0.3575700	2.0598700	-0.5463100	0.3848600	2.3305100	-0.4424300	0.2797000	1.2695800	-0.1510900	0.3150500	1.2654800	-0.0375600	0.2395900	0.7834000	-0.0711100	0.2049300	0.2786700	-0.0586800	0.2982900	1.2694600	-0.2652600	0.2315900	0.7870000	-0.2137900	0.1993500	0.2742200	-0.2272200	0.3744600	0.1931200	-0.2406100	0.3173000	0.2068400	-0.2896000	0.1179700	0.2187100	-0.2041100	0.3806300	0.1995600	-0.0444100	0.3401000	0.2100700	0.0008600	0.1370700	0.2247400	-0.0835400
59	0.9666667	0.2492000	1.8371700	-0.1459200	0.2430400	1.8091300	0.0430000	0.1772600	1.5148000	0.1086000	0.2808300	1.2254800	0.1486900	0.2747100	1.8543200	-0.3172700	0.3695500	2.0489100	-0.5504500	0.3882200	2.3226200	-0.4507300	0.2805300	1.2657600	-0.1508500	0.3138000	1.2657000	-0.0375100	0.2402900	0.7788400	-0.0711900	0.2174100	0.2773800	-0.0636300	0.2974700	1.2695700	-0.2658500	0.2315800	0.7860900	-0.2139900	0.1991000	0.2702600	-0.2276300	0.3740900	0.1932500	-0.2408700	0.3173200	0.2068000	-0.2897900	0.1183700	0.2190600	-0.2040800	0.3800100	0.1996100	-0.0443700	0.3403400	0.2105600	0.0008700	0.1356200	0.2211100	-0.0826000
60	0.9833333	0.2488400	1.8371300	-0.1461700	0.2437100	1.8088600	0.0432700	0.1778500	1.5146400	0.1084800	0.2805100	1.2253400	0.1485500	0.2866000	1.8491000	-0.3216000	0.3820500	2.0309100	-0.5611900	0.4177900	2.2922400	-0.4630700	0.2803800	1.2654400	-0.1510900	0.3156800	1.2611300	-0.0376100	0.2399200	0.7789400	-0.0713000	0.2156800	0.2809600	-0.0633300	0.3091600	1.2695100	-0.2611300	0.2420300	0.7882000	-0.2180100	0.1994000	0.2702400	-0.2275800	0.3746700	0.1929500	-0.2406100	0.3174500	0.2068600	-0.2896400	0.1178200	0.2186400	-0.2041200	0.3818600	0.2027500	-0.0449700	0.3401800	0.2100600	0.0008700	0.1356000	0.2208600	-0.0829200
61	1.0000000	0.2383900	1.8383100	-0.1498400	0.2428900	1.8058600	0.0428600	0.1771800	1.5146200	0.1086100	0.2807000	1.2252400	0.1485900	0.2858700	1.8487300	-0.3213000	0.3937900	1.9932800	-0.5655900	0.4420400	2.2634500	-0.4694400	0.2915300	1.2658200	-0.1554000	0.3145800	1.2612800	-0.0376200	0.2402600	0.7751900	-0.0710100	0.2060700	0.2791100	-0.0585500	0.3087900	1.2658400	-0.2616400	0.2420400	0.7874200	-0.2182200	0.1991200	0.2701500	-0.2276800	0.3741200	0.1928100	-0.2407900	0.3173800	0.1992300	-0.2896400	0.1184400	0.2189800	-0.2041400	0.3799200	0.1996300	-0.0443200	0.3396700	0.2070900	0.0014000	0.1354000	0.2212000	-0.0825500
62	1.0166667	0.2379400	1.8383200	-0.1501000	0.2438000	1.8088300	0.0433500	0.1777900	1.5146300	0.1084800	0.2687300	1.2250600	0.1453000	0.2869300	1.8412600	-0.3218000	0.3830300	1.9840500	-0.5702100	0.4406600	2.2449400	-0.4697400	0.2910300	1.2655500	-0.1556300	0.3158400	1.2611100	-0.0377200	0.2397800	0.7752700	-0.0711400	0.2052300	0.2745300	-0.0590800	0.3096100	1.2657100	-0.2611100	0.2421200	0.7882800	-0.2180300	0.1885700	0.2639400	-0.2313000	0.3747200	0.1928600	-0.2405500	0.3174500	0.2032600	-0.2891100	0.1178700	0.2185800	-0.2041800	0.3805500	0.1995200	-0.0443400	0.3394000	0.2065500	0.0013400	0.1354300	0.2208500	-0.0828900
63	1.0333333	0.2384600	1.8381900	-0.1498700	0.2552200	1.8033300	0.0469300	0.1772200	1.5145900	0.1086000	0.2689600	1.2249000	0.1452400	0.2866800	1.8409200	-0.3213400	0.3754500	1.9679800	-0.5754600	0.4422600	2.2204800	-0.4791300	0.2915500	1.2658100	-0.1554900	0.3244100	1.2613400	-0.0421100	0.2402200	0.7751700	-0.0709900	0.2061100	0.2790800	-0.0585300	0.3086700	1.2658100	-0.2617000	0.2420500	0.7874800	-0.2182100	0.1880100	0.2678200	-0.2317800	0.3741400	0.1928300	-0.2407600	0.3173700	0.2031600	-0.2892600	0.1297300	0.2215600	-0.2085800	0.3799300	0.1996000	-0.0443600	0.3396500	0.2070900	0.0013600	0.1354000	0.2211800	-0.0825200
64	1.0500000	0.2376900	1.8384400	-0.1501900	0.2559200	1.8030800	0.0472100	0.1778700	1.5145400	0.1085100	0.2686200	1.2248700	0.1451100	0.2762600	1.8425800	-0.3261100	0.3759100	1.9298600	-0.5833800	0.4433500	2.1867100	-0.4775300	0.2909300	1.2655500	-0.1557000	0.3159200	1.2610700	-0.0377800	0.2399300	0.7788800	-0.0713800	0.2046900	0.2786100	-0.0586800	0.2984200	1.2694500	-0.2654200	0.2417700	0.7924000	-0.2178800	0.1883300	0.2678700	-0.2316900	0.3747000	0.1928500	-0.2405100	0.3175300	0.1993500	-0.2894700	0.1178700	0.2186000	-0.2041800	0.3806000	0.1994900	-0.0443400	0.3394600	0.2065400	0.0013100	0.1243000	0.2183500	-0.0782100
65	1.0666667	0.2384400	1.8382000	-0.1499000	0.2553500	1.8033600	0.0469700	0.1772200	1.5146000	0.1086400	0.2687700	1.2251900	0.1451000	0.2965300	1.8437600	-0.3256800	0.3477200	1.9212600	-0.5984300	0.4557000	2.1574700	-0.4908900	0.2919900	1.2616000	-0.1555300	0.3146100	1.2612400	-0.0376800	0.2404600	0.7788600	-0.0712100	0.1947000	0.2767400	-0.0622300	0.2982500	1.2657100	-0.2659100	0.2423300	0.7874000	-0.2181600	0.1991300	0.2701800	-0.2276700	0.3742000	0.1928000	-0.2407300	0.3174600	0.2031700	-0.2892100	0.1184400	0.2190300	-0.2041900	0.3799200	0.1996700	-0.0443600	0.3394200	0.2148100	0.0013600	0.1352500	0.2212800	-0.0825500
66	1.0833333	0.2376700	1.8384500	-0.1501800	0.2559500	1.8030700	0.0472300	0.1778800	1.5145500	0.1085100	0.2684700	1.2250800	0.1449900	0.2756900	1.8465500	-0.3264100	0.3473200	1.8819500	-0.5982800	0.4870900	2.1058300	-0.5098200	0.2910600	1.2655200	-0.1557300	0.3158700	1.2610900	-0.0378100	0.2400100	0.7788600	-0.0713200	0.2041500	0.2786100	-0.0671000	0.2991600	1.2656200	-0.2653200	0.2423600	0.7880400	-0.2180600	0.1995500	0.2702800	-0.2275700	0.3748700	0.1927000	-0.2404500	0.3175600	0.2032800	-0.2890500	0.1291800	0.2211400	-0.2085900	0.3818800	0.2027600	-0.0449400	0.3392400	0.2142800	0.0013100	0.1352800	0.2210000	-0.0829700
67	1.1000000	0.2380900	1.8347800	-0.1500700	0.2552900	1.8033400	0.0469600	0.1771800	1.5146600	0.1086000	0.2686600	1.2251900	0.1449900	0.2968200	1.8436600	-0.3255900	0.3397000	1.8619500	-0.6027600	0.4912800	2.0738800	-0.5172400	0.2914400	1.2657700	-0.1555400	0.3144100	1.2612600	-0.0376200	0.2409000	0.7824800	-0.0714700	0.1946100	0.2767300	-0.0622100	0.2981900	1.2657100	-0.2659300	0.2424600	0.7872700	-0.2182300	0.1991000	0.2701600	-0.2276900	0.3743200	0.1925300	-0.2406500	0.3175900	0.1992400	-0.2895500	0.1068500	0.2164900	-0.2082700	0.3812500	0.2029100	-0.0449800	0.3394300	0.2148900	0.0013500	0.1241000	0.2187400	-0.0778300
